HIERARCHY
ROOT joint_Root
{
	OFFSET 0.0 0.0 0.0
	CHANNELS 6 Xposition Yposition Zposition Zrotation Xrotation Yrotation 
	JOINT Hips
	{
		OFFSET -17.1583 93.1646 452.98
		CHANNELS 6 Xposition Yposition Zposition Zrotation Xrotation Yrotation 
		JOINT Spine
		{
			OFFSET 15.7357 0.0 0.0
			CHANNELS 6 Xposition Yposition Zposition Zrotation Xrotation Yrotation 
			JOINT Chest
			{
				OFFSET 8.98455 -0.406207 0.0
				CHANNELS 6 Xposition Yposition Zposition Zrotation Xrotation Yrotation 
				JOINT Neck
				{
					OFFSET 16.3773 0.0 0.0
					CHANNELS 6 Xposition Yposition Zposition Zrotation Xrotation Yrotation 
					JOINT Head
					{
						OFFSET 6.45672 0.0 0.0
						CHANNELS 6 Xposition Yposition Zposition Zrotation Xrotation Yrotation 
						End Site
						{
							OFFSET 0.0 0.0 0.0
						}
					}
				}
				JOINT Shoulder_L
				{
					OFFSET 12.9942 -0.242716 4.98039
					CHANNELS 6 Xposition Yposition Zposition Zrotation Xrotation Yrotation 
					JOINT UpperArm_L
					{
						OFFSET 5.34809 0.0 0.0
						CHANNELS 6 Xposition Yposition Zposition Zrotation Xrotation Yrotation 
						JOINT LowerArm_L
						{
							OFFSET 24.3286 1.87007e-05 0.0
							CHANNELS 6 Xposition Yposition Zposition Zrotation Xrotation Yrotation 
							JOINT Hand_L
							{
								OFFSET 22.2916 0.0 0.0
								CHANNELS 6 Xposition Yposition Zposition Zrotation Xrotation Yrotation 
								End Site
								{
									OFFSET 0.0 0.0 0.0
								}
							}
						}
					}
				}
				JOINT Shoulder_R
				{
					OFFSET 12.9945 -0.242716 -4.98039
					CHANNELS 6 Xposition Yposition Zposition Zrotation Xrotation Yrotation 
					JOINT UpperArm_R
					{
						OFFSET -5.34813 0.0 0.0
						CHANNELS 6 Xposition Yposition Zposition Zrotation Xrotation Yrotation 
						JOINT LowerArm_R
						{
							OFFSET -24.3289 0.000322201 0.0
							CHANNELS 6 Xposition Yposition Zposition Zrotation Xrotation Yrotation 
							JOINT Hand_R
							{
								OFFSET -22.2915 -0.000108084 0.0
								CHANNELS 6 Xposition Yposition Zposition Zrotation Xrotation Yrotation 
								End Site
								{
									OFFSET 0.0 0.0 0.0
								}
							}
						}
					}
				}
			}
		}
		JOINT UpperLeg_L
		{
			OFFSET -2.19248 -6.46944 0.0
			CHANNELS 6 Xposition Yposition Zposition Zrotation Xrotation Yrotation 
			JOINT LowerLeg_L
			{
				OFFSET 39.0811 0.0 -1.23785e-05
				CHANNELS 6 Xposition Yposition Zposition Zrotation Xrotation Yrotation 
				JOINT Foot_L
				{
					OFFSET 40.9854 0.0 -1.26872e-05
					CHANNELS 6 Xposition Yposition Zposition Zrotation Xrotation Yrotation 
					JOINT Toes_L
					{
						OFFSET 11.7543 0.0 0.0
						CHANNELS 6 Xposition Yposition Zposition Zrotation Xrotation Yrotation 
						End Site
						{
							OFFSET 0.0 0.0 0.0
						}
					}
				}
			}
		}
		JOINT UpperLeg_R
		{
			OFFSET -2.19251 6.46944 0.0
			CHANNELS 6 Xposition Yposition Zposition Zrotation Xrotation Yrotation 
			JOINT LowerLeg_R
			{
				OFFSET -39.0811 -0.00228153 -0.0401928
				CHANNELS 6 Xposition Yposition Zposition Zrotation Xrotation Yrotation 
				JOINT Foot_R
				{
					OFFSET -40.9854 0.0 0.0
					CHANNELS 6 Xposition Yposition Zposition Zrotation Xrotation Yrotation 
					JOINT Toes_R
					{
						OFFSET -11.7543 0.0 0.0
						CHANNELS 6 Xposition Yposition Zposition Zrotation Xrotation Yrotation 
						End Site
						{
							OFFSET 0.0 0.0 0.0
						}
					}
				}
			}
		}
	}
}
MOTION
Frames:	6
Frame Time:	0.0333333
0.000000 0.000000 0.000000 0.000000 0.000000 -0.000000 91.173200 89.488600 168.859000 -60.412900 66.847900 158.981000 15.735700 0.000005 -0.000001 79.276400 84.845600 -75.158100 8.984550 -0.406207 -0.000000 2.453300 -2.107140 8.274460 16.377300 -0.000001 -0.000001 16.822700 20.469500 -13.255100 6.456720 -0.000001 -0.000000 -5.342580 31.384100 0.388957 12.994200 -0.242716 4.980390 -92.645000 6.808040 -68.709200 5.348090 -0.000007 -0.000001 -76.438200 -8.613970 2.367830 24.328600 0.000019 0.000005 17.923400 23.446400 -39.107100 22.291600 -0.000001 0.000005 57.748300 4.439670 17.586200 12.994500 -0.242716 -4.980390 87.302200 6.820190 -68.357000 -5.348130 -0.000001 -0.000004 -66.793700 4.950810 -0.686901 -24.328900 0.000322 -0.000009 -3.896040 -15.755500 -14.076300 -22.291500 -0.000108 -0.000004 40.326900 5.521530 -7.427570 -2.192480 -6.469440 -0.000000 -172.214000 4.307760 -1.866650 39.081100 -0.000007 -0.000012 -0.014399 0.008156 60.486300 40.985400 -0.000006 -0.000013 -4.114670 5.120310 -33.633700 11.754300 -0.000000 0.000003 0.002425 0.070517 -13.716800 -2.192510 6.469440 -0.000001 -171.590000 0.543824 166.120000 -39.081100 -0.002282 -0.040193 0.151895 -0.230759 32.780000 -40.985400 0.000008 0.000006 -2.324200 -0.455258 -68.752700 -11.754300 -0.000006 -0.000006 -0.013449 0.295489 -4.560650
0.000000 0.000000 0.000000 0.000000 0.000000 -0.000000 94.213800 89.952400 167.660000 -64.666900 63.484000 163.975000 15.735700 0.000005 -0.000001 83.683100 84.468700 -79.709400 8.984550 -0.406207 -0.000000 3.290080 -1.370610 7.978600 16.377300 -0.000001 -0.000001 15.351400 19.690100 -11.632800 6.456720 -0.000001 -0.000000 -4.906110 29.515300 -0.189914 12.994200 -0.242716 4.980390 -92.542300 6.527970 -68.667200 5.348090 -0.000007 -0.000001 -76.644100 -8.433790 2.713530 24.328600 0.000019 0.000005 15.134200 24.163600 -33.453100 22.291600 -0.000001 0.000005 56.641700 4.428030 17.774300 12.994500 -0.242716 -4.980390 87.358300 6.735880 -68.527200 -5.348130 -0.000001 -0.000004 -67.976100 6.475750 -2.654000 -24.328900 0.000322 -0.000009 -5.416220 -16.452100 -18.505900 -22.291500 -0.000108 -0.000004 40.860800 5.534090 -7.976290 -2.192480 -6.469440 -0.000000 -172.804000 4.192030 -7.449650 39.081100 -0.000007 -0.000012 -0.023535 0.009711 67.590600 40.985400 -0.000006 -0.000013 -1.543660 -2.009420 -39.208600 11.754300 -0.000000 0.000003 0.002367 0.065401 -13.924100 -2.192510 6.469440 -0.000001 -172.277000 3.835940 170.258000 -39.081100 -0.002282 -0.040193 0.128882 -0.207323 31.204700 -40.985400 0.000008 0.000006 -3.064160 -0.897620 -70.397600 -11.754300 -0.000006 -0.000006 -0.013313 0.294589 -4.597560
0.000000 0.000000 0.000000 0.000000 0.000000 -0.000000 96.843900 90.475200 166.320000 -69.716100 60.485000 168.952000 15.735700 0.000005 -0.000001 88.499800 84.256900 -85.048200 8.984550 -0.406207 -0.000000 3.738390 -0.421323 6.909360 16.377300 -0.000001 -0.000001 14.252200 18.845000 -10.112800 6.456720 -0.000001 -0.000000 -4.844450 27.519200 -0.454913 12.994200 -0.242716 4.980390 -92.450100 6.223990 -68.462300 5.348090 -0.000007 -0.000001 -76.067800 -9.046770 3.402990 24.328600 0.000019 0.000005 12.944400 23.323400 -30.136600 22.291600 -0.000001 0.000005 55.289000 4.422490 17.863300 12.994500 -0.242716 -4.980390 87.362000 6.749640 -68.593800 -5.348130 -0.000001 -0.000004 -68.286100 8.882530 -5.040770 -24.328900 0.000322 -0.000009 -6.573330 -16.214000 -22.421900 -22.291500 -0.000108 -0.000004 41.745800 5.549930 -8.702580 -2.192480 -6.469440 -0.000000 -174.832000 4.058670 -12.601000 39.081100 -0.000007 -0.000012 -0.056894 0.020056 70.587300 40.985400 -0.000006 -0.000013 -1.209750 -4.772770 -44.267700 11.754300 -0.000000 0.000003 0.002289 0.060157 -14.136800 -2.192510 6.469440 -0.000001 -174.147000 6.299710 173.929000 -39.081100 -0.002282 -0.040193 0.056849 -0.096768 28.957100 -40.985400 0.000008 0.000006 -5.076110 -1.615020 -71.134100 -11.754300 -0.000006 -0.000006 -0.013315 0.294599 -4.597150
0.000000 0.000000 0.000000 0.000000 0.000000 -0.000000 99.262000 90.987500 165.003000 -74.335200 57.018600 172.672000 15.735700 0.000005 -0.000001 91.798500 84.313700 -88.913600 8.984550 -0.406207 -0.000000 3.601270 0.251801 5.755530 16.377300 -0.000001 -0.000001 13.569400 17.826500 -8.959910 6.456720 -0.000001 -0.000000 -4.706690 25.742400 -0.378329 12.994200 -0.242716 4.980390 -92.385900 5.997540 -68.259300 5.348090 -0.000007 -0.000001 -74.798200 -11.089700 4.531720 24.328600 0.000019 0.000005 12.014400 22.607600 -28.969500 22.291600 -0.000001 0.000005 54.584800 4.432760 17.697800 12.994500 -0.242716 -4.980390 87.492300 6.404390 -68.564100 -5.348130 -0.000001 -0.000004 -68.362100 10.495300 -7.203530 -24.328900 0.000322 -0.000009 -7.026570 -14.380000 -26.392000 -22.291500 -0.000108 -0.000004 42.659900 5.552300 -8.815160 -2.192480 -6.469440 -0.000000 -177.349000 4.489100 -17.253900 39.081100 -0.000007 -0.000012 -0.116910 0.042607 69.978700 40.985400 -0.000006 -0.000013 -0.546503 -3.317550 -49.221100 11.754300 -0.000000 0.000003 0.002430 0.071055 -13.694900 -2.192510 6.469440 -0.000001 -176.318000 9.672680 177.236000 -39.081100 -0.002282 -0.040193 -0.015057 0.037845 25.888500 -40.985400 0.000008 0.000006 -7.213890 -1.497560 -71.232000 -11.754300 -0.000006 -0.000006 -0.012674 0.290304 -4.773180
0.000000 0.000000 0.000000 0.000000 0.000000 -0.000000 101.538000 91.412800 163.721000 -77.440800 53.453600 174.640000 15.735700 0.000005 -0.000001 95.256000 84.462800 -92.799600 8.984550 -0.406207 -0.000000 3.247370 0.916612 4.881480 16.377300 -0.000001 -0.000001 13.252500 16.885700 -8.033400 6.456720 -0.000001 -0.000000 -4.740140 23.959200 -0.228856 12.994200 -0.242716 4.980390 -92.419400 6.004460 -68.005800 5.348090 -0.000007 -0.000001 -72.774400 -13.489700 5.768310 24.328600 0.000019 0.000005 11.882600 21.910300 -29.417800 22.291600 -0.000001 0.000005 54.513500 4.417930 17.936400 12.994500 -0.242716 -4.980390 87.647300 6.025890 -68.626200 -5.348130 -0.000001 -0.000004 -68.410400 10.400000 -8.762990 -24.328900 0.000322 -0.000009 -7.146260 -12.061900 -30.959900 -22.291500 -0.000108 -0.000004 43.516500 5.553630 -8.878720 -2.192480 -6.469440 -0.000000 -179.320000 4.203040 -20.956800 39.081100 -0.000007 -0.000012 -0.130016 0.057536 66.131100 40.985400 -0.000006 -0.000013 -1.042010 -2.558440 -53.883100 11.754300 -0.000000 0.000003 0.002481 0.079467 -13.353900 -2.192510 6.469440 -0.000001 -178.316000 14.265600 -179.460000 -39.081100 -0.002282 -0.040193 -0.065186 0.167911 22.194300 -40.985400 0.000008 0.000006 -9.351030 -0.074324 -70.259400 -11.754300 -0.000006 -0.000006 -0.011912 0.285080 -4.987190
0.000000 0.000000 0.000000 0.000000 0.000000 -0.000000 103.660000 91.756800 162.482000 -79.494700 50.439000 175.171000 15.735700 0.000005 -0.000001 100.410000 84.703700 -98.273400 8.984550 -0.406207 -0.000000 2.623110 1.816560 4.228260 16.377300 -0.000001 -0.000001 12.970800 16.111300 -7.290070 6.456720 -0.000001 -0.000000 -4.772190 22.301000 -0.081578 12.994200 -0.242716 4.980390 -92.557700 6.250440 -67.692300 5.348090 -0.000007 -0.000001 -70.245100 -15.977500 6.830950 24.328600 0.000019 0.000005 12.269400 21.655300 -30.512000 22.291600 -0.000001 0.000005 54.414300 4.421350 17.881600 12.994500 -0.242716 -4.980390 87.793400 5.735950 -68.916800 -5.348130 -0.000001 -0.000004 -68.175900 9.515930 -10.044200 -24.328900 0.000322 -0.000009 -6.769550 -9.622010 -35.377700 -22.291500 -0.000108 -0.000004 44.206600 5.554380 -8.914590 -2.192480 -6.469440 -0.000000 179.089000 2.561580 -23.936100 39.081100 -0.000007 -0.000012 -0.110590 0.065430 59.391300 40.985400 -0.000006 -0.000013 -2.005170 -3.223810 -57.984200 11.754300 -0.000000 0.000003 0.002463 0.075458 -13.516400 -2.192510 6.469440 -0.000001 -179.917000 19.345100 -177.220000 -39.081100 -0.002282 -0.040193 -0.059309 0.176913 19.495000 -40.985400 0.000008 0.000006 -9.681210 2.241690 -68.871500 -11.754300 -0.000006 -0.000006 -0.009134 0.264718 -5.820320
